<svg width="18" height="20" viewBox="0 0 18 20" fill="none" xmlns="http://www.w3.org/2000/svg">
<path d="M6.38177 18.0503V15.239C6.38176 14.5266 6.96105 13.9478 7.67859 13.9433H10.3132C11.034 13.9433 11.6183 14.5234 11.6183 15.239V18.0421C11.6182 18.66 12.1204 19.1622 12.7427 19.1667H14.5402C15.3797 19.1688 16.1855 18.8392 16.7799 18.2507C17.3743 17.6621 17.7084 16.8629 17.7084 16.0294V8.0437C17.7084 7.37045 17.4077 6.73183 16.8876 6.29989L10.7811 1.45142C9.71366 0.603372 8.18911 0.630768 7.1533 1.51661L1.17811 6.29989C0.633366 6.7191 0.307777 7.35961 0.291687 8.0437V16.0213C0.291687 17.7584 1.71012 19.1667 3.45985 19.1667H5.21629C5.51593 19.1688 5.80405 19.0522 6.0167 18.8426C6.22936 18.633 6.34895 18.3478 6.34894 18.0503H6.38177Z" fill="rgba(239, 238, 224, .25)"/>
</svg>
