<svg width="20" height="20" viewBox="0 0 20 20" fill="none" xmlns="http://www.w3.org/2000/svg">
<path d="M14.5833 3.35416H13.6666V1.98832C13.6666 1.22749 13.0433 0.604156 12.2825 0.604156H7.71748C6.95665 0.604156 6.33331 1.22749 6.33331 1.98832V3.35416H5.41665C4.40831 3.35416 3.58331 4.17916 3.58331 5.18749V5.30666C3.87665 5.22416 4.17915 5.18749 4.49998 5.18749H15.5C15.8208 5.18749 16.1233 5.22416 16.4166 5.30666V5.18749C16.4166 4.17916 15.5916 3.35416 14.5833 3.35416Z" fill="#EFEEE0" fill-opacity="0.25"/>
<path d="M11.7691 14.5192C11.4758 14.5192 11.2466 14.7575 11.2466 15.0417C11.2466 15.3258 11.485 15.5642 11.7691 15.5642C12.0533 15.5642 12.2916 15.3258 12.2916 15.0417C12.2916 14.7575 12.0533 14.5192 11.7691 14.5192Z" fill="#EFEEE0" fill-opacity="0.25"/>
<path d="M7.31419 15.3258C7.02085 15.3258 6.79169 15.5642 6.79169 15.8483C6.79169 16.1325 7.03002 16.3708 7.31419 16.3708C7.59835 16.3708 7.83669 16.1325 7.83669 15.8483C7.83669 15.5642 7.60752 15.3258 7.31419 15.3258Z" fill="#EFEEE0" fill-opacity="0.25"/>
<path d="M16.4166 6.68167C16.1233 6.59917 15.8208 6.5625 15.5 6.5625H4.49998C4.17915 6.5625 3.87665 6.59917 3.58331 6.68167C2.00665 7.09417 0.833313 8.53333 0.833313 10.2292V15.7292C0.833313 17.7458 2.48331 19.3958 4.49998 19.3958H15.5C17.5166 19.3958 19.1666 17.7458 19.1666 15.7292V10.2292C19.1666 8.53333 17.9933 7.09417 16.4166 6.68167ZM13.6666 11.1733V15.0417C13.6666 16.0867 12.8141 16.9392 11.7691 16.9392C10.7241 16.9392 9.87165 16.0867 9.87165 15.0417C9.87165 13.9967 10.7241 13.1442 11.7691 13.1442C11.9525 13.1442 12.1266 13.1808 12.2916 13.2267V12.0717L9.22081 12.9058V15.8483C9.22081 15.8575 9.22081 15.8667 9.21165 15.8758C9.20248 16.9117 8.34998 17.755 7.31415 17.755C6.26915 17.755 5.41665 16.9025 5.41665 15.8483C5.41665 14.7942 6.26915 13.9508 7.31415 13.9508C7.49748 13.9508 7.67165 13.9875 7.84581 14.0333V12.3833V10.9625C7.84581 10.1742 8.34081 9.5325 9.09248 9.33083L11.5216 8.66167C12.3008 8.45083 12.7958 8.6525 13.0708 8.86333C13.3458 9.07417 13.6666 9.48667 13.6666 10.3025V11.1733Z" fill="#EFEEE0" fill-opacity="0.25"/>
</svg>
