<svg width="18" height="18" viewBox="0 0 18 18" fill="none" xmlns="http://www.w3.org/2000/svg">
<path d="M12.4917 0.666666H5.51671C2.48338 0.666666 0.675049 2.475 0.675049 5.50833V12.4833C0.675049 15.5167 2.48338 17.325 5.51671 17.325H12.4917C15.525 17.325 17.3334 15.5167 17.3334 12.4833V5.50833C17.3334 2.475 15.525 0.666666 12.4917 0.666666Z" fill="#7C8DB5" fill-opacity="0.72"/>
<path d="M12.0168 4.91663L10.1084 4.28334C9.62512 4.11667 9.13345 4.1833 8.75845 4.44997C8.38345 4.71663 8.17511 5.16666 8.17511 5.67499V6.18331V9.66664C7.84178 9.48331 7.46675 9.375 7.05842 9.375C5.77509 9.375 4.7251 10.425 4.7251 11.7083C4.7251 12.9917 5.77509 14.0416 7.05842 14.0416C8.34175 14.0416 9.39174 12.9917 9.39174 11.7083V7.91666C9.40008 7.925 9.41678 7.92496 9.42511 7.93329L11.3334 8.56664C11.5084 8.62497 11.6918 8.65834 11.8668 8.65834C12.1668 8.65834 12.4501 8.57501 12.6834 8.40001C13.0584 8.13334 13.2668 7.68332 13.2668 7.17498V6.66666C13.2668 5.90833 12.7334 5.1583 12.0168 4.91663ZM7.05842 12.825C6.44175 12.825 5.95012 12.325 5.95012 11.7167C5.95012 11.1 6.45009 10.6 7.05842 10.6C7.67509 10.6 8.17511 11.1 8.17511 11.7167C8.17511 12.325 7.67509 12.825 7.05842 12.825Z" fill="white"/>
</svg>
