<svg xmlns="http://www.w3.org/2000/svg" height="48" width="48">
    <symbol id="delete">
        <path d="M13.05 42q-1.2 0-2.1-.9-.9-.9-.9-2.1V10.5H8v-3h9.4V6h13.2v1.5H40v3h-2.05V39q0 1.2-.9 2.1-.9.9-2.1.9Zm5.3-7.3h3V14.75h-3Zm8.3 0h3V14.75h-3Z"/>
    </symbol>
    <symbol id="del">
        <path d="M18.05 33.05 24 27l6 6.05 2.35-2.4-5.95-6.05 5.95-6.05-2.35-2.4-6 6.05-5.95-6.05-2.4 2.4 6 6.05-6 6.05Zm-5 8.95q-1.2 0-2.1-.9-.9-.9-.9-2.1V10.5H8v-3h9.4V6h13.2v1.5H40v3h-2.05V39q0 1.2-.9 2.1-.9.9-2.1.9Zm21.9-31.5h-21.9V39h21.9Zm-21.9 0V39Z"/>
    </symbol>
</svg>