<?xml version="1.0" encoding="UTF-8" standalone="no"?>
<!DOCTYPE svg PUBLIC "-//W3C//DTD SVG 1.1//EN" "http://www.w3.org/Graphics/SVG/1.1/DTD/svg11.dtd">
<!-- Created with Vectornator (http://vectornator.io/) -->
<svg height="100%" stroke-miterlimit="10" style="fill-rule:nonzero;clip-rule:evenodd;stroke-linecap:round;stroke-linejoin:round;" version="1.1" viewBox="0 0 18 18" width="100%" xml:space="preserve" xmlns="http://www.w3.org/2000/svg" xmlns:vectornator="http://vectornator.io" xmlns:xlink="http://www.w3.org/1999/xlink">
<defs/>
<clipPath id="ArtboardFrame">
<rect height="18" width="18" x="0" y="0"/>
</clipPath>
<g clip-path="url(#ArtboardFrame)" id="Calque-1" vectornator:layerName="Calque 1" visibility="hidden">
<g opacity="1">
<g opacity="1">
<path d="M896.253 304.064C896.253 152.429 1020.2 29.5045 1173.09 29.5045C1325.98 29.5045 1449.92 152.429 1449.92 304.064C1449.92 455.699 1325.98 578.623 1173.09 578.623C1020.2 578.623 896.253 455.699 896.253 304.064Z" fill="#202020" fill-rule="nonzero" opacity="1" stroke="#f5f5ff" stroke-linecap="butt" stroke-linejoin="miter" stroke-opacity="0.0570342" stroke-width="1.33396"/>
<path d="M768.922 905.479C768.922 753.845 949.872 630.92 1173.09 630.92C1396.3 630.92 1577.25 753.845 1577.25 905.479C1577.25 1057.11 1396.3 1180.04 1173.09 1180.04C949.872 1180.04 768.922 1057.11 768.922 905.479Z" fill="#202020" fill-rule="nonzero" opacity="1" stroke="#f5f5ff" stroke-linecap="butt" stroke-linejoin="miter" stroke-opacity="0.0570342" stroke-width="1.33396"/>
</g>
<g opacity="1">
<path d="M1324.4 661.749C1324.4 529.105 1432.82 421.577 1566.56 421.577C1700.3 421.577 1808.72 529.105 1808.72 661.749C1808.72 794.392 1700.3 901.92 1566.56 901.92C1432.82 901.92 1324.4 794.392 1324.4 661.749Z" fill="#2d2d2d" fill-rule="nonzero" opacity="1" stroke="#f5f5ff" stroke-linecap="butt" stroke-linejoin="miter" stroke-opacity="0.0570342" stroke-width="1.33396"/>
<path d="M1213.01 1187.84C1213.01 1055.2 1371.3 947.667 1566.56 947.667C1761.81 947.667 1920.1 1055.2 1920.1 1187.84C1920.1 1320.48 1761.81 1428.01 1566.56 1428.01C1371.3 1428.01 1213.01 1320.48 1213.01 1187.84Z" fill="#2d2d2d" fill-rule="nonzero" opacity="1" stroke="#f5f5ff" stroke-linecap="butt" stroke-linejoin="miter" stroke-opacity="0.0570342" stroke-width="1.33396"/>
</g>
<g opacity="1">
<path d="M566.712 738.089C566.712 587.071 690.149 464.648 842.417 464.648C994.685 464.648 1118.12 587.071 1118.12 738.089C1118.12 889.106 994.685 1011.53 842.417 1011.53C690.149 1011.53 566.712 889.106 566.712 738.089Z" fill="#4f524f" fill-rule="nonzero" opacity="1" stroke="#f5f5ff" stroke-linecap="butt" stroke-linejoin="miter" stroke-opacity="0.0570342" stroke-width="1.33396"/>
<path d="M439.899 1337.05C439.899 1186.04 620.112 1063.61 842.417 1063.61C1064.72 1063.61 1244.94 1186.04 1244.94 1337.05C1244.94 1488.07 1064.72 1610.5 842.417 1610.5C620.112 1610.5 439.899 1488.07 439.899 1337.05Z" fill="#4f524f" fill-rule="nonzero" opacity="1" stroke="#f5f5ff" stroke-linecap="butt" stroke-linejoin="miter" stroke-opacity="0.0570342" stroke-width="1.33396"/>
</g>
</g>
<g opacity="1">
<g opacity="1">
<path d="M896.253 304.064C896.253 152.429 1020.2 29.5045 1173.09 29.5045C1325.98 29.5045 1449.92 152.429 1449.92 304.064C1449.92 455.699 1325.98 578.623 1173.09 578.623C1020.2 578.623 896.253 455.699 896.253 304.064Z" fill="#202020" fill-rule="nonzero" opacity="1" stroke="#f5f5ff" stroke-linecap="butt" stroke-linejoin="miter" stroke-opacity="0.0570342" stroke-width="1.33396"/>
<path d="M768.922 905.479C768.922 753.845 949.872 630.92 1173.09 630.92C1396.3 630.92 1577.25 753.845 1577.25 905.479C1577.25 1057.11 1396.3 1180.04 1173.09 1180.04C949.872 1180.04 768.922 1057.11 768.922 905.479Z" fill="#202020" fill-rule="nonzero" opacity="1" stroke="#f5f5ff" stroke-linecap="butt" stroke-linejoin="miter" stroke-opacity="0.0570342" stroke-width="1.33396"/>
</g>
<g opacity="1">
<path d="M1324.4 661.749C1324.4 529.105 1432.82 421.577 1566.56 421.577C1700.3 421.577 1808.72 529.105 1808.72 661.749C1808.72 794.392 1700.3 901.92 1566.56 901.92C1432.82 901.92 1324.4 794.392 1324.4 661.749Z" fill="#2d2d2d" fill-rule="nonzero" opacity="1" stroke="#f5f5ff" stroke-linecap="butt" stroke-linejoin="miter" stroke-opacity="0.0570342" stroke-width="1.33396"/>
<path d="M1213.01 1187.84C1213.01 1055.2 1371.3 947.667 1566.56 947.667C1761.81 947.667 1920.1 1055.2 1920.1 1187.84C1920.1 1320.48 1761.81 1428.01 1566.56 1428.01C1371.3 1428.01 1213.01 1320.48 1213.01 1187.84Z" fill="#2d2d2d" fill-rule="nonzero" opacity="1" stroke="#f5f5ff" stroke-linecap="butt" stroke-linejoin="miter" stroke-opacity="0.0570342" stroke-width="1.33396"/>
</g>
<g opacity="1">
<path d="M566.712 738.089C566.712 587.071 690.149 464.648 842.417 464.648C994.685 464.648 1118.12 587.071 1118.12 738.089C1118.12 889.106 994.685 1011.53 842.417 1011.53C690.149 1011.53 566.712 889.106 566.712 738.089Z" fill="#4f524f" fill-rule="nonzero" opacity="1" stroke="#f5f5ff" stroke-linecap="butt" stroke-linejoin="miter" stroke-opacity="0.0570342" stroke-width="1.33396"/>
<path d="M439.899 1337.05C439.899 1186.04 620.112 1063.61 842.417 1063.61C1064.72 1063.61 1244.94 1186.04 1244.94 1337.05C1244.94 1488.07 1064.72 1610.5 842.417 1610.5C620.112 1610.5 439.899 1488.07 439.899 1337.05Z" fill="#4f524f" fill-rule="nonzero" opacity="1" stroke="#f5f5ff" stroke-linecap="butt" stroke-linejoin="miter" stroke-opacity="0.0570342" stroke-width="1.33396"/>
</g>
</g>
<g opacity="1">
<g opacity="1">
<path d="M896.253 304.064C896.253 152.429 1020.2 29.5045 1173.09 29.5045C1325.98 29.5045 1449.92 152.429 1449.92 304.064C1449.92 455.699 1325.98 578.623 1173.09 578.623C1020.2 578.623 896.253 455.699 896.253 304.064Z" fill="#202020" fill-rule="nonzero" opacity="1" stroke="#f5f5ff" stroke-linecap="butt" stroke-linejoin="miter" stroke-opacity="0.0570342" stroke-width="1.33396"/>
<path d="M768.922 905.479C768.922 753.845 949.872 630.92 1173.09 630.92C1396.3 630.92 1577.25 753.845 1577.25 905.479C1577.25 1057.11 1396.3 1180.04 1173.09 1180.04C949.872 1180.04 768.922 1057.11 768.922 905.479Z" fill="#202020" fill-rule="nonzero" opacity="1" stroke="#f5f5ff" stroke-linecap="butt" stroke-linejoin="miter" stroke-opacity="0.0570342" stroke-width="1.33396"/>
</g>
<g opacity="1">
<path d="M1324.4 661.749C1324.4 529.105 1432.82 421.577 1566.56 421.577C1700.3 421.577 1808.72 529.105 1808.72 661.749C1808.72 794.392 1700.3 901.92 1566.56 901.92C1432.82 901.92 1324.4 794.392 1324.4 661.749Z" fill="#2d2d2d" fill-rule="nonzero" opacity="1" stroke="#f5f5ff" stroke-linecap="butt" stroke-linejoin="miter" stroke-opacity="0.0570342" stroke-width="1.33396"/>
<path d="M1213.01 1187.84C1213.01 1055.2 1371.3 947.667 1566.56 947.667C1761.81 947.667 1920.1 1055.2 1920.1 1187.84C1920.1 1320.48 1761.81 1428.01 1566.56 1428.01C1371.3 1428.01 1213.01 1320.48 1213.01 1187.84Z" fill="#2d2d2d" fill-rule="nonzero" opacity="1" stroke="#f5f5ff" stroke-linecap="butt" stroke-linejoin="miter" stroke-opacity="0.0570342" stroke-width="1.33396"/>
</g>
<g opacity="1">
<path d="M566.712 738.089C566.712 587.071 690.149 464.648 842.417 464.648C994.685 464.648 1118.12 587.071 1118.12 738.089C1118.12 889.106 994.685 1011.53 842.417 1011.53C690.149 1011.53 566.712 889.106 566.712 738.089Z" fill="#4f524f" fill-rule="nonzero" opacity="1" stroke="#f5f5ff" stroke-linecap="butt" stroke-linejoin="miter" stroke-opacity="0.0570342" stroke-width="1.33396"/>
<path d="M439.899 1337.05C439.899 1186.04 620.112 1063.61 842.417 1063.61C1064.72 1063.61 1244.94 1186.04 1244.94 1337.05C1244.94 1488.07 1064.72 1610.5 842.417 1610.5C620.112 1610.5 439.899 1488.07 439.899 1337.05Z" fill="#4f524f" fill-rule="nonzero" opacity="1" stroke="#f5f5ff" stroke-linecap="butt" stroke-linejoin="miter" stroke-opacity="0.0570342" stroke-width="1.33396"/>
</g>
</g>
<g opacity="1">
<g opacity="1">
<path d="M896.253 304.064C896.253 152.429 1020.2 29.5045 1173.09 29.5045C1325.98 29.5045 1449.92 152.429 1449.92 304.064C1449.92 455.699 1325.98 578.623 1173.09 578.623C1020.2 578.623 896.253 455.699 896.253 304.064Z" fill="#202020" fill-rule="nonzero" opacity="1" stroke="#f5f5ff" stroke-linecap="butt" stroke-linejoin="miter" stroke-opacity="0.0570342" stroke-width="1.33396"/>
<path d="M768.922 905.479C768.922 753.845 949.872 630.92 1173.09 630.92C1396.3 630.92 1577.25 753.845 1577.25 905.479C1577.25 1057.11 1396.3 1180.04 1173.09 1180.04C949.872 1180.04 768.922 1057.11 768.922 905.479Z" fill="#202020" fill-rule="nonzero" opacity="1" stroke="#f5f5ff" stroke-linecap="butt" stroke-linejoin="miter" stroke-opacity="0.0570342" stroke-width="1.33396"/>
</g>
<g opacity="1">
<path d="M1324.4 661.749C1324.4 529.105 1432.82 421.577 1566.56 421.577C1700.3 421.577 1808.72 529.105 1808.72 661.749C1808.72 794.392 1700.3 901.92 1566.56 901.92C1432.82 901.92 1324.4 794.392 1324.4 661.749Z" fill="#2d2d2d" fill-rule="nonzero" opacity="1" stroke="#f5f5ff" stroke-linecap="butt" stroke-linejoin="miter" stroke-opacity="0.0570342" stroke-width="1.33396"/>
<path d="M1213.01 1187.84C1213.01 1055.2 1371.3 947.667 1566.56 947.667C1761.81 947.667 1920.1 1055.2 1920.1 1187.84C1920.1 1320.48 1761.81 1428.01 1566.56 1428.01C1371.3 1428.01 1213.01 1320.48 1213.01 1187.84Z" fill="#2d2d2d" fill-rule="nonzero" opacity="1" stroke="#f5f5ff" stroke-linecap="butt" stroke-linejoin="miter" stroke-opacity="0.0570342" stroke-width="1.33396"/>
</g>
<g opacity="1">
<path d="M566.712 738.089C566.712 587.071 690.149 464.648 842.417 464.648C994.685 464.648 1118.12 587.071 1118.12 738.089C1118.12 889.106 994.685 1011.53 842.417 1011.53C690.149 1011.53 566.712 889.106 566.712 738.089Z" fill="#4f524f" fill-rule="nonzero" opacity="1" stroke="#f5f5ff" stroke-linecap="butt" stroke-linejoin="miter" stroke-opacity="0.0570342" stroke-width="1.33396"/>
<path d="M439.899 1337.05C439.899 1186.04 620.112 1063.61 842.417 1063.61C1064.72 1063.61 1244.94 1186.04 1244.94 1337.05C1244.94 1488.07 1064.72 1610.5 842.417 1610.5C620.112 1610.5 439.899 1488.07 439.899 1337.05Z" fill="#4f524f" fill-rule="nonzero" opacity="1" stroke="#f5f5ff" stroke-linecap="butt" stroke-linejoin="miter" stroke-opacity="0.0570342" stroke-width="1.33396"/>
</g>
</g>
</g>
<g id="Calque-2" vectornator:layerName="Calque 2">
<g opacity="1">
<g opacity="1">
<path d="M5.78861 3.16073C5.78861 1.44456 7.19137 0.0533255 8.92175 0.0533255C10.6521 0.0533255 12.0549 1.44456 12.0549 3.16073C12.0549 4.87691 10.6521 6.26814 8.92175 6.26814C7.19137 6.26814 5.78861 4.87691 5.78861 3.16073Z" fill="#202020" fill-rule="nonzero" opacity="1" stroke="#f5f5ff" stroke-linecap="butt" stroke-linejoin="miter" stroke-opacity="0" stroke-width="1.33396"/>
<path d="M4.34749 9.96744C4.34749 8.25126 6.39546 6.86003 8.92175 6.86003C11.448 6.86003 13.496 8.25126 13.496 9.96744C13.496 11.6836 11.448 13.0748 8.92175 13.0748C6.39546 13.0748 4.34749 11.6836 4.34749 9.96744Z" fill="#202020" fill-rule="nonzero" opacity="1" stroke="#f5f5ff" stroke-linecap="butt" stroke-linejoin="miter" stroke-opacity="0" stroke-width="1.33396"/>
</g>
<g opacity="1">
<path d="M10.6342 7.20894C10.6342 5.70771 11.8613 4.49072 13.375 4.49072C14.8886 4.49072 16.1157 5.70771 16.1157 7.20894C16.1157 8.71017 14.8886 9.92716 13.375 9.92716C11.8613 9.92716 10.6342 8.71017 10.6342 7.20894Z" fill="#2d2d2d" fill-rule="nonzero" opacity="1" stroke="#f5f5ff" stroke-linecap="butt" stroke-linejoin="miter" stroke-opacity="0" stroke-width="1.33396"/>
<path d="M9.37363 13.1631C9.37363 11.6619 11.1651 10.4449 13.375 10.4449C15.5849 10.4449 17.3763 11.6619 17.3763 13.1631C17.3763 14.6644 15.5849 15.8813 13.375 15.8813C11.1651 15.8813 9.37363 14.6644 9.37363 13.1631Z" fill="#2d2d2d" fill-rule="nonzero" opacity="1" stroke="#f5f5ff" stroke-linecap="butt" stroke-linejoin="miter" stroke-opacity="0" stroke-width="1.33396"/>
</g>
<g opacity="1">
<path d="M2.05892 8.07294C2.05892 6.36376 3.45596 4.97819 5.1793 4.97819C6.90264 4.97819 8.29968 6.36376 8.29968 8.07294C8.29968 9.78213 6.90264 11.1677 5.1793 11.1677C3.45596 11.1677 2.05892 9.78213 2.05892 8.07294Z" fill="#4f524f" fill-rule="nonzero" opacity="1" stroke="#f5f5ff" stroke-linecap="butt" stroke-linejoin="miter" stroke-opacity="0" stroke-width="1.33396"/>
<path d="M0.623675 14.8519C0.623675 13.1427 2.6633 11.7572 5.1793 11.7572C7.69531 11.7572 9.73493 13.1427 9.73493 14.8519C9.73493 16.5611 7.69531 17.9467 5.1793 17.9467C2.6633 17.9467 0.623675 16.5611 0.623675 14.8519Z" fill="#4f524f" fill-rule="nonzero" opacity="1" stroke="#f5f5ff" stroke-linecap="butt" stroke-linejoin="miter" stroke-opacity="0" stroke-width="1.33396"/>
</g>
</g>
</g>
</svg>
