<svg width="16" height="16" viewBox="0 0 16 16" fill="none" xmlns="http://www.w3.org/2000/svg">
<path opacity="0.4" d="M7.8208 15.8631C5.99436 14.6756 4.29652 13.2754 2.75833 11.6881C1.67243 10.5547 0.843112 9.17092 0.333754 7.64233C-0.576351 4.66125 0.483068 1.2543 3.44091 0.24286C5.00212 -0.273237 6.70006 0.0435827 8.00566 1.0946C9.31174 0.0447581 11.0091 -0.271959 12.5704 0.24286C15.5283 1.2543 16.5948 4.66125 15.6847 7.64233C15.1795 9.16948 14.3551 10.5532 13.2743 11.6881C11.7347 13.2737 10.0371 14.6737 8.21186 15.8631L8.01277 16L7.8208 15.8631Z" fill="url(#paint0_linear_91_464)"/>
<path d="M8.00872 16L7.82079 15.8631C5.9921 14.6757 4.2919 13.2755 2.75121 11.6881C1.66016 10.5563 0.825907 9.17234 0.312415 7.6423C-0.59058 4.66122 0.46884 1.25427 3.42668 0.242832C4.98789 -0.273265 6.70823 0.0437973 8.00872 1.10361V16Z" fill="url(#paint1_linear_91_464)"/>
<path d="M12.9844 5.89407C12.8237 5.88318 12.674 5.79864 12.5705 5.66026C12.4669 5.52187 12.4186 5.3418 12.4367 5.16223C12.4541 4.57077 12.1344 4.03242 11.6414 3.82295C11.3288 3.73312 11.1394 3.37672 11.2176 3.02524C11.2918 2.67942 11.5995 2.46439 11.9087 2.54223C11.9477 2.54904 11.9853 2.56393 12.0195 2.58614C13.0081 2.98658 13.6481 4.06433 13.5972 5.24273C13.5956 5.42134 13.5294 5.59155 13.4139 5.71436C13.2983 5.83716 13.1433 5.90202 12.9844 5.89407Z" fill="url(#paint2_linear_91_464)"/>
<defs>
<linearGradient id="paint0_linear_91_464" x1="8.00873" y1="-8" x2="-7.99126" y2="7.98254" gradientUnits="userSpaceOnUse">
<stop stop-color="#FF7E3A"/>
<stop offset="1" stop-color="#FF9A45"/>
</linearGradient>
<linearGradient id="paint1_linear_91_464" x1="4.00436" y1="-7.99953" x2="-8.8039" y2="-1.58828" gradientUnits="userSpaceOnUse">
<stop stop-color="#FF7E3A"/>
<stop offset="1" stop-color="#FF9A45"/>
</linearGradient>
<linearGradient id="paint2_linear_91_464" x1="12.4" y1="0.842096" x2="9.21626" y2="3.11052" gradientUnits="userSpaceOnUse">
<stop stop-color="#FF7E3A"/>
<stop offset="1" stop-color="#FF9A45"/>
</linearGradient>
</defs>
</svg>