<svg width="18" height="18" viewBox="0 0 18 18" fill="none" xmlns="http://www.w3.org/2000/svg">
<path opacity="0.55" d="M14.0083 11.5084C13.1 11.45 12.1667 11.7833 11.475 12.475C10.175 13.775 10.175 15.8834 11.475 17.1917C11.9167 17.6334 12.4583 17.925 13.0333 18.0667C13.35 18.15 13.6833 18.175 14.0167 18.1583C14.8083 18.125 15.5833 17.8084 16.1917 17.2C17.05 16.3417 17.3417 15.1333 17.0667 14.0417C16.9333 13.4667 16.6333 12.925 16.1917 12.4833C15.5917 11.875 14.8083 11.55 14.0083 11.5084ZM15.7 14.8167C15.7 14.9917 15.6333 15.1417 15.5167 15.2584C15.4 15.375 15.25 15.4417 15.075 15.4417H14.4583V16.0917C14.4583 16.2667 14.3917 16.4167 14.275 16.5333C14.1583 16.65 14.0083 16.7167 13.8333 16.7167C13.4917 16.7167 13.2083 16.4334 13.2083 16.0917V15.4417H12.5833C12.2417 15.4417 11.9583 15.1583 11.9583 14.8167C11.9583 14.475 12.2417 14.1917 12.5833 14.1917H13.2083V13.6C13.2083 13.2584 13.4917 12.975 13.8333 12.975C14.175 12.975 14.4583 13.2584 14.4583 13.6V14.1917H15.075C15.425 14.1917 15.7 14.475 15.7 14.8167Z" fill="#7C8DB5" fill-opacity="0.72"/>
<path opacity="0.72" d="M11.6166 17.3083C11.3666 17.0916 11.15 16.8333 10.9833 16.55C10.675 16.05 10.5 15.4583 10.5 14.8333C10.5 12.9917 11.9916 11.5 13.8333 11.5C14.8166 11.5 15.7083 11.925 16.3083 12.6083C16.3166 12.6167 16.3166 12.625 16.325 12.625C16.325 12.575 16.3333 12.5333 16.3333 12.4917V5.50833C16.3333 2.475 14.525 0.666667 11.4916 0.666667H4.50829C4.27496 0.666667 4.04996 0.67499 3.83329 0.708323C1.20829 0.94999 -0.333374 2.70833 -0.333374 5.50833V12.4917C-0.333374 15.2917 1.20829 17.05 3.83329 17.2917C4.04996 17.325 4.27496 17.3333 4.50829 17.3333H11.4916C11.5416 17.3333 11.5833 17.325 11.6333 17.325C11.6333 17.3167 11.625 17.3166 11.6166 17.3083Z" fill="#7C8DB5" fill-opacity="0.72"/>
<path d="M9.48336 3.41667C9.21669 3.20833 8.73336 3.00834 7.9667 3.21667L5.48336 3.90001C4.74169 4.09168 4.25835 4.71667 4.25835 5.5V6.95833V8.75836C4.06669 8.6917 3.85836 8.64168 3.6417 8.64168C2.60836 8.64168 1.77502 9.48334 1.77502 10.5083C1.77502 11.5333 2.6167 12.375 3.6417 12.375C4.65836 12.375 5.49169 11.55 5.50835 10.5417C5.50835 10.5333 5.5167 10.525 5.5167 10.5167V7.43334L8.82503 6.53333V7.93332C8.63336 7.86665 8.42503 7.81669 8.20003 7.81669C7.1667 7.81669 6.33336 8.65835 6.33336 9.68335C6.33336 10.7167 7.17503 11.55 8.20003 11.55C9.2167 11.55 10.05 10.725 10.0667 9.70832C10.0667 9.69999 10.075 9.69167 10.075 9.67501V5.70833V4.81666C10.0667 4.18333 9.86669 3.70833 9.48336 3.41667ZM3.63335 11.125C3.29169 11.125 3.0167 10.85 3.0167 10.5083C3.0167 10.1667 3.29169 9.89168 3.63335 9.89168C3.97502 9.89168 4.25003 10.1667 4.25003 10.5083C4.25003 10.85 3.97502 11.125 3.63335 11.125ZM8.19169 10.2917C7.85002 10.2917 7.57503 10.0167 7.57503 9.67501C7.57503 9.33334 7.85002 9.05835 8.19169 9.05835C8.53336 9.05835 8.80836 9.33334 8.80836 9.67501C8.80836 10.0167 8.53336 10.2917 8.19169 10.2917Z" fill="white"/>
</svg>
