<?xml version="1.0" encoding="UTF-8" standalone="no"?>
<!DOCTYPE svg PUBLIC "-//W3C//DTD SVG 1.1//EN" "http://www.w3.org/Graphics/SVG/1.1/DTD/svg11.dtd">
<!-- Created with Vectornator (http://vectornator.io/) -->
<svg height="100%" stroke-miterlimit="10" style="fill-rule:nonzero;clip-rule:evenodd;stroke-linecap:round;stroke-linejoin:round;" version="1.1" viewBox="0 0 18 18" width="100%" xml:space="preserve" xmlns="http://www.w3.org/2000/svg" xmlns:vectornator="http://vectornator.io" xmlns:xlink="http://www.w3.org/1999/xlink">
<defs/>
<g id="Calque-1" vectornator:layerName="Calque 1">
<path d="M9 0.108769L9 0.108769C9.86396 0.108769 10.5643 0.801508 10.5643 1.65604L10.5643 16.344C10.5643 17.1985 9.86396 17.8912 9 17.8912L9 17.8912C8.13604 17.8912 7.43566 17.1985 7.43566 16.344L7.43566 1.65604C7.43566 0.801508 8.13604 0.108769 9 0.108769Z" fill="#4f524f" fill-rule="nonzero" opacity="1" stroke="#f5f5ff" stroke-linecap="butt" stroke-linejoin="miter" stroke-opacity="0" stroke-width="1.33396"/>
<path d="M17.8585 8.9633L17.8585 8.9633C17.862 9.82726 17.1747 10.5305 16.3233 10.5339L1.68946 10.5937C0.838069 10.5971 0.145021 9.89959 0.141494 9.03563L0.141494 9.03563C0.137967 8.17167 0.825297 7.46848 1.67669 7.465L16.3105 7.40527C17.1619 7.40179 17.855 8.09935 17.8585 8.9633Z" fill="#4f524f" fill-rule="nonzero" opacity="1" stroke="#f5f5ff" stroke-linecap="butt" stroke-linejoin="miter" stroke-opacity="0" stroke-width="1.33396"/>
</g>
<g id="Calque-2" vectornator:layerName="Calque 2" visibility="hidden">
<g opacity="1">
<g opacity="1">
<path d="M5.78861 3.16073C5.78861 1.44456 7.19137 0.0533255 8.92175 0.0533255C10.6521 0.0533255 12.0549 1.44456 12.0549 3.16073C12.0549 4.87691 10.6521 6.26814 8.92175 6.26814C7.19137 6.26814 5.78861 4.87691 5.78861 3.16073Z" fill="#202020" fill-rule="nonzero" opacity="1" stroke="#f5f5ff" stroke-linecap="butt" stroke-linejoin="miter" stroke-opacity="0" stroke-width="1.33396"/>
<path d="M4.34749 9.96744C4.34749 8.25126 6.39546 6.86003 8.92175 6.86003C11.448 6.86003 13.496 8.25126 13.496 9.96744C13.496 11.6836 11.448 13.0748 8.92175 13.0748C6.39546 13.0748 4.34749 11.6836 4.34749 9.96744Z" fill="#202020" fill-rule="nonzero" opacity="1" stroke="#f5f5ff" stroke-linecap="butt" stroke-linejoin="miter" stroke-opacity="0" stroke-width="1.33396"/>
</g>
<g opacity="1">
<path d="M10.6342 7.20894C10.6342 5.70771 11.8613 4.49072 13.375 4.49072C14.8886 4.49072 16.1157 5.70771 16.1157 7.20894C16.1157 8.71017 14.8886 9.92716 13.375 9.92716C11.8613 9.92716 10.6342 8.71017 10.6342 7.20894Z" fill="#2d2d2d" fill-rule="nonzero" opacity="1" stroke="#f5f5ff" stroke-linecap="butt" stroke-linejoin="miter" stroke-opacity="0" stroke-width="1.33396"/>
<path d="M9.37363 13.1631C9.37363 11.6619 11.1651 10.4449 13.375 10.4449C15.5849 10.4449 17.3763 11.6619 17.3763 13.1631C17.3763 14.6644 15.5849 15.8813 13.375 15.8813C11.1651 15.8813 9.37363 14.6644 9.37363 13.1631Z" fill="#2d2d2d" fill-rule="nonzero" opacity="1" stroke="#f5f5ff" stroke-linecap="butt" stroke-linejoin="miter" stroke-opacity="0" stroke-width="1.33396"/>
</g>
<g opacity="1">
<path d="M2.05892 8.07294C2.05892 6.36376 3.45596 4.97819 5.1793 4.97819C6.90264 4.97819 8.29968 6.36376 8.29968 8.07294C8.29968 9.78213 6.90264 11.1677 5.1793 11.1677C3.45596 11.1677 2.05892 9.78213 2.05892 8.07294Z" fill="#4f524f" fill-rule="nonzero" opacity="1" stroke="#f5f5ff" stroke-linecap="butt" stroke-linejoin="miter" stroke-opacity="0" stroke-width="1.33396"/>
<path d="M0.623675 14.8519C0.623675 13.1427 2.6633 11.7572 5.1793 11.7572C7.69531 11.7572 9.73493 13.1427 9.73493 14.8519C9.73493 16.5611 7.69531 17.9467 5.1793 17.9467C2.6633 17.9467 0.623675 16.5611 0.623675 14.8519Z" fill="#4f524f" fill-rule="nonzero" opacity="1" stroke="#f5f5ff" stroke-linecap="butt" stroke-linejoin="miter" stroke-opacity="0" stroke-width="1.33396"/>
</g>
</g>
</g>
</svg>
