<svg xmlns="http://www.w3.org/2000/svg" height="48" width="48">
    <symbol id="like-off">
        <path d="M35.8 42H13.6V16.4L27.5 2l1.95 1.55q.3.25.45.7.15.45.15 1.1v.5L27.8 16.4h14.95q1.2 0 2.1.9.9.9.9 2.1v4.1q0 .35.075.725t-.075.725l-6.3 14.5q-.45 1.05-1.475 1.8Q36.95 42 35.8 42Zm-19.2-3h19.85l6.3-14.95V19.4H24.1l2.65-12.45-10.15 10.7Zm0-21.35V39Zm-3-1.25v3H6.95V39h6.65v3H3.95V16.4Z"/>
    </symbol>
    <symbol id="like-on">
        <path d="M36.05 42H12.7V16.4L26.6 2l1.65 1.3q.55.4.725.9.175.5.175 1.15v.5L26.9 16.4H43q1.15 0 2.075.925Q46 18.25 46 19.4v4.1q0 .55-.125 1.275-.125.725-.375 1.275l-5.8 13.4q-.45 1.05-1.475 1.8Q37.2 42 36.05 42ZM9.7 16.4V42H4V16.4Z"/>
    </symbol>
</svg>